<svg xmlns="http://www.w3.org/2000/svg" viewBox="0 0 22 26" role="img" aria-label="Pascal">
  <defs>
    <linearGradient id="pascalMarkGrad" x1="0%" y1="0%" x2="100%" y2="100%">
      <stop offset="0%" stop-color="#003DA5"/>
      <stop offset="55%" stop-color="#0070F2"/>
      <stop offset="100%" stop-color="#00A8FF"/>
    </linearGradient>
  </defs>
  <path
    fill="url(#pascalMarkGrad)"
    d="M3 1.5h9.2c5.1 0 8.3 3.1 8.3 7.4 0 4-2.8 7.1-7.5 7.1H10.2V24.5H3V1.5zm7.2 11.8h2.6c2.8 0 4.3-1.4 4.3-4.1S15.6 5.1 12.8 5.1h-2.6v8.2z"/>
  <path fill="#FFFFFF" d="M3 9.2h3.8V5.8H3V9.2z"/>
  <rect x="2.2" y="21.8" width="2.8" height="1.1" rx="0.25" fill="#0070F2" transform="rotate(-18 3.6 22.35)"/>
  <rect x="5.8" y="22.5" width="3.6" height="1.1" rx="0.25" fill="#0070F2" transform="rotate(-18 7.6 23.05)"/>
  <rect x="10.2" y="23.2" width="4.4" height="1.1" rx="0.25" fill="#0070F2" transform="rotate(-18 12.4 23.75)"/>
</svg>
